HIERARCHY
ROOT hip
{
  OFFSET 0 0 0
  CHANNELS 6 Xposition Yposition Zposition Zrotation Yrotation Xrotation
  JOINT abdomen
  {
    OFFSET 0 20.6881 -0.73152
    CHANNELS 3 Zrotation Xrotation Yrotation
    JOINT chest
    {
      OFFSET 0 11.7043 -0.48768
      CHANNELS 3 Zrotation Xrotation Yrotation
      JOINT neck
      {
        OFFSET 0 22.1894 -2.19456
        CHANNELS 3 Zrotation Xrotation Yrotation
        JOINT head
        {
          OFFSET -0.24384 7.07133 1.2192
          CHANNELS 3 Zrotation Xrotation Yrotation
          JOINT leftEye
          {
            OFFSET 4.14528 8.04674 8.04672
            CHANNELS 3 Zrotation Xrotation Yrotation
            End Site
            {
              OFFSET 1 0 0
            }
          }
          JOINT rightEye
          {
            OFFSET -3.6576 8.04674 8.04672
            CHANNELS 3 Zrotation Xrotation Yrotation
            End Site
            {
              OFFSET 1 0 0
            }
          }
        }
      }
      JOINT rCollar
      {
        OFFSET -2.68224 19.2634 -4.8768
        CHANNELS 3 Zrotation Xrotation Yrotation
        JOINT rShldr
        {
          OFFSET -8.77824 -1.95073 1.46304
          CHANNELS 3 Zrotation Xrotation Yrotation
          JOINT rForeArm
          {
            OFFSET -28.1742 -1.7115 0.48768
            CHANNELS 3 Zrotation Xrotation Yrotation
            JOINT rHand
            {
              OFFSET -22.5879 0.773209 7.07136
              CHANNELS 3 Zrotation Xrotation Yrotation
              JOINT rThumb1
              {
                OFFSET -1.2192 -0.487915 3.41376
                CHANNELS 3 Zrotation Xrotation Yrotation
                JOINT rThumb2
                {
                  OFFSET -3.37035 -0.52449 3.41376
                  CHANNELS 3 Zrotation Xrotation Yrotation
                  End Site
                  {
                    OFFSET -1.78271 -1.18214 1.43049
                  }
                }
              }
              JOINT rIndex1
              {
                OFFSET -7.75947 0.938293 5.60832
                CHANNELS 3 Zrotation Xrotation Yrotation
                JOINT rIndex2
                {
                  OFFSET -2.54057 -0.884171 1.56538
                  CHANNELS 3 Zrotation Xrotation Yrotation
                  End Site
                  {
                    OFFSET -1.62519 -0.234802 1.16502
                  }
                }
              }
              JOINT rMid1
              {
                OFFSET -8.24714 1.18213 3.41376
                CHANNELS 3 Zrotation Xrotation Yrotation
                JOINT rMid2
                {
                  OFFSET -3.10165 -0.590103 1.0647
                  CHANNELS 3 Zrotation Xrotation Yrotation
                  End Site
                  {
                    OFFSET -2.48547 -0.328903 0.83742
                  }
                }
              }
              JOINT rRing1
              {
                OFFSET -8.82822 0.546677 1.51678
                CHANNELS 3 Zrotation Xrotation Yrotation
                JOINT rRing2
                {
                  OFFSET -2.60934 -0.819778 -0.0198488
                  CHANNELS 3 Zrotation Xrotation Yrotation
                  End Site
                  {
                    OFFSET -2.33842 -0.294052 0.168128
                  }
                }
              }
              JOINT rPinky1
              {
                OFFSET -8.27202 -0.0477905 -0.4584
                CHANNELS 3 Zrotation Xrotation Yrotation
                JOINT rPinky2
                {
                  OFFSET -1.82734 -0.647385 -0.700984
                  CHANNELS 3 Zrotation Xrotation Yrotation
                  End Site
                  {
                    OFFSET -1.69225 -0.51767 -0.607171
                  }
                }
              }
            }
          }
        }
      }
      JOINT lCollar
      {
        OFFSET 2.68224 19.2634 -4.8768
        CHANNELS 3 Zrotation Xrotation Yrotation
        JOINT lShldr
        {
          OFFSET 8.77824 -1.95073 1.46304
          CHANNELS 3 Zrotation Xrotation Yrotation
          JOINT lForeArm
          {
            OFFSET 28.1742 -1.7115 0.48768
            CHANNELS 3 Zrotation Xrotation Yrotation
            JOINT lHand
            {
              OFFSET 22.5879 0.773209 7.07136
              CHANNELS 3 Zrotation Xrotation Yrotation
              JOINT lThumb1
              {
                OFFSET 1.2192 -0.487915 3.41376
                CHANNELS 3 Zrotation Xrotation Yrotation
                JOINT lThumb2
                {
                  OFFSET 3.37035 -0.52449 3.41376
                  CHANNELS 3 Zrotation Xrotation Yrotation
                  End Site
                  {
                    OFFSET 1.78271 -1.18214 1.43049
                  }
                }
              }
              JOINT lIndex1
              {
                OFFSET 7.75947 0.938293 5.60832
                CHANNELS 3 Zrotation Xrotation Yrotation
                JOINT lIndex2
                {
                  OFFSET 2.54057 -0.884171 1.56538
                  CHANNELS 3 Zrotation Xrotation Yrotation
                  End Site
                  {
                    OFFSET 1.62519 -0.234802 1.16502
                  }
                }
              }
              JOINT lMid1
              {
                OFFSET 8.24714 1.18213 3.41376
                CHANNELS 3 Zrotation Xrotation Yrotation
                JOINT lMid2
                {
                  OFFSET 3.10165 -0.590103 1.0647
                  CHANNELS 3 Zrotation Xrotation Yrotation
                  End Site
                  {
                    OFFSET 2.48547 -0.328903 0.83742
                  }
                }
              }
              JOINT lRing1
              {
                OFFSET 8.82822 0.546677 1.51678
                CHANNELS 3 Zrotation Xrotation Yrotation
                JOINT lRing2
                {
                  OFFSET 2.60934 -0.819778 -0.0198488
                  CHANNELS 3 Zrotation Xrotation Yrotation
                  End Site
                  {
                    OFFSET 2.33842 -0.294052 0.168128
                  }
                }
              }
              JOINT lPinky1
              {
                OFFSET 8.27202 -0.0477905 -0.4584
                CHANNELS 3 Zrotation Xrotation Yrotation
                JOINT lPinky2
                {
                  OFFSET 1.82734 -0.647385 -0.700984
                  CHANNELS 3 Zrotation Xrotation Yrotation
                  End Site
                  {
                    OFFSET 1.69225 -0.51767 -0.607171
                  }
                }
              }
            }
          }
        }
      }
    }
  }
  JOINT rButtock
  {
    OFFSET -8.77824 4.35084 1.2192
    CHANNELS 3 Zrotation Xrotation Yrotation
    JOINT rThigh
    {
      OFFSET 0 -1.70687 -2.19456
      CHANNELS 3 Zrotation Xrotation Yrotation
      JOINT rShin
      {
        OFFSET 0 -36.8199 0.73152
        CHANNELS 3 Zrotation Xrotation Yrotation
        JOINT rFoot
        {
          OFFSET 0.73152 -45.1104 -5.12064
          CHANNELS 3 Zrotation Xrotation Yrotation
          End Site
          {
            OFFSET -1.1221 -3.69964 12.103
          }
        }
      }
    }
  }
  JOINT lButtock
  {
    OFFSET 8.77824 4.35084 1.2192
    CHANNELS 3 Zrotation Xrotation Yrotation
    JOINT lThigh
    {
      OFFSET 0 -1.70687 -2.19456
      CHANNELS 3 Zrotation Xrotation Yrotation
      JOINT lShin
      {
        OFFSET 0 -36.8199 0.73152
        CHANNELS 3 Zrotation Xrotation Yrotation
        JOINT lFoot
        {
          OFFSET -0.73152 -45.1104 -5.12064
          CHANNELS 3 Zrotation Xrotation Yrotation
          End Site
          {
            OFFSET 1.1221 -3.69964 12.103
          }
        }
      }
    }
  }
}
MOTION
Frames:	4
Frame Time:	0.00833333
9.06972 82.5878 1.54311 1.4057 -48.4874 8.1159 8.42678 10.4977 2.27635 1.04269 -6.81436 1.01937 -11.033 -3.16112 -5.07524 10.7146 -9.19789 -5.5685 -0.0 0.0 0.0 -0.0 0.0 0.0 4.14509e-14 -2.21717e-13 -4.32314e-13 80.8191 44.237 -4.17262 -27.9185 -40.7663 85.3559 -0.282609 -14.951 -2.15084 1.21356e-09 -9.22028e-10 -8.28691e-10 2.11329e-09 -1.57151e-09 -1.41667e-09 1.21356e-09 -9.2202e-10 -8.28697e-10 7.73091 5.47488 0.417314 1.21356e-09 -9.22023e-10 -8.2869e-10 2.90554 0.965183 0.102902 1.21357e-09 -9.22029e-10 -8.2869e-10 10.2786 0.731801 0.0259123 1.21356e-09 -9.22027e-10 -8.28678e-10 2.22167 -0.733487 -0.20892 4.13403e-14 -2.21733e-13 -4.32428e-13 -98.4941 44.8873 23.341 28.004 -40.3937 -84.6302 0.707383 -23.1728 3.44885 2.49917e-09 4.04051e-09 3.68548e-09 4.2636e-09 7.0341e-09 6.40459e-09 2.49917e-09 4.04051e-09 3.68548e-09 -7.73091 5.47488 -0.417314 2.49917e-09 4.0405e-09 3.68546e-09 -2.90554 0.965183 -0.102902 2.49917e-09 4.04051e-09 3.68548e-09 -10.2786 0.731801 -0.0259123 2.49918e-09 4.04051e-09 3.68547e-09 -2.22167 -0.733487 0.20892 -2.03217e-16 0.0 -3.88251e-19 12.2735 -12.9874 7.93071 -0.245379 39.9967 0.929582 -3.22281 -19.943 -6.60059 2.03217e-16 0.0 3.88251e-19 15.3764 -39.768 7.80247 2.35322 71.7892 -2.79359 0.259402 2.07571 -2.66314
7.76254 83.1418 3.11511 1.0091 -48.4275 8.5689 8.46466 10.0884 2.27057 1.07778 -6.95638 0.996453 -11.5327 -2.65809 -4.96976 11.0922 -9.33738 -5.24764 -0.0 0.0 0.0 -0.0 0.0 0.0 1.63319e-13 1.61571e-13 -1.08189e-12 80.0917 45.3347 -3.75666 -27.8202 -41.2255 86.1917 -0.270319 -14.63 -2.10255 1.9972e-09 6.86098e-09 2.15176e-09 3.44351e-09 1.19003e-08 3.73807e-09 1.9972e-09 6.86099e-09 2.15176e-09 7.73091 5.47488 0.417314 1.9972e-09 6.86099e-09 2.15177e-09 2.90554 0.965183 0.102902 1.99721e-09 6.86098e-09 2.15176e-09 10.2786 0.731801 0.0259123 1.9972e-09 6.86098e-09 2.15178e-09 2.22167 -0.733487 -0.20892 1.63239e-13 1.61566e-13 -1.08203e-12 -99.9864 43.7369 24.9383 27.9648 -40.5977 -84.9984 0.713874 -23.2706 3.46518 3.5317e-09 1.18678e-09 2.53743e-09 6.07608e-09 2.13028e-09 4.43343e-09 3.53169e-09 1.18678e-09 2.53743e-09 -7.73091 5.47488 -0.417314 3.5317e-09 1.18678e-09 2.53741e-09 -2.90554 0.965183 -0.102902 3.53169e-09 1.18678e-09 2.53742e-09 -10.2786 0.731801 -0.0259123 3.5317e-09 1.18678e-09 2.53741e-09 -2.22167 -0.733487 0.20892 -2.03217e-16 0.0 -3.88251e-19 11.7234 -11.9787 7.34427 -0.225023 38.9852 0.920911 -3.16946 -16.5305 -7.35298 2.03217e-16 0.0 3.88251e-19 14.9024 -40.4094 8.01977 1.99368 69.5728 -2.44672 0.314139 0.822423 -1.78012
6.45525 83.8119 4.69549 0.9577 -48.2624 8.7236 8.39281 9.69135 2.24881 1.15162 -7.08428 0.968212 -12.0301 -2.16339 -4.87786 11.428 -9.48554 -4.95442 -0.0 0.0 0.0 -0.0 0.0 0.0 2.75619e-13 5.49428e-13 -1.68504e-12 79.3643 46.3403 -3.40212 -27.7292 -41.6423 86.9308 -0.252889 -14.1647 -2.03278 2.65912e-09 1.46491e-08 5.22076e-09 4.56182e-09 2.53797e-08 9.04461e-09 2.65912e-09 1.46491e-08 5.22076e-09 7.73091 5.47488 0.417314 2.65911e-09 1.46491e-08 5.22077e-09 2.90554 0.965183 0.102902 2.65912e-09 1.46491e-08 5.22077e-09 10.2786 0.731801 0.0259123 2.65911e-09 1.46491e-08 5.22078e-09 2.22167 -0.733487 -0.20892 2.75563e-13 5.49433e-13 -1.68522e-12 -101.393 42.5694 26.4489 27.9329 -40.7549 -85.2849 0.71642 -23.3094 3.47166 4.30551e-09 -2.02589e-09 1.04157e-09 7.44645e-09 -3.39939e-09 1.85748e-09 4.3055e-09 -2.02589e-09 1.04157e-09 -7.73091 5.47488 -0.417314 4.30551e-09 -2.02588e-09 1.04156e-09 -2.90554 0.965183 -0.102902 4.3055e-09 -2.02589e-09 1.04156e-09 -10.2786 0.731801 -0.0259123 4.30551e-09 -2.02589e-09 1.04155e-09 -2.22167 -0.733487 0.20892 -2.03217e-16 0.0 -3.88251e-19 11.0931 -11.075 6.60269 -0.208322 37.9639 0.903704 -2.98925 -12.6092 -8.22027 2.03217e-16 0.0 3.88251e-19 14.1905 -40.8651 8.10206 1.67656 67.1087 -2.13904 0.397923 -0.369854 -0.916645
5.17445 84.5523 6.39488 1.909 -48.1006 8.1499 8.26554 9.33787 2.35173 1.16356 -7.14475 0.972886 -12.332 -1.89032 -4.88296 11.5722 -9.51634 -4.90142 -0.0 0.0 0.0 -0.0 0.0 0.0 3.24079e-13 7.54083e-13 -1.95271e-12 78.7466 47.0102 -3.14951 -27.6297 -42.0411 87.664 -0.235045 -13.6764 -1.95984 2.84391e-09 1.86754e-08 6.84148e-09 4.86671e-09 3.2346e-08 1.18454e-08 2.84391e-09 1.86754e-08 6.84147e-09 7.73091 5.47488 0.417314 2.8439e-09 1.86754e-08 6.84148e-09 2.90554 0.965183 0.102902 2.84391e-09 1.86754e-08 6.84148e-09 10.2786 0.731801 0.0259123 2.8439e-09 1.86754e-08 6.84149e-09 2.22167 -0.733487 -0.20892 3.2403e-13 7.54096e-13 -1.95291e-12 -102.472 41.6841 27.7009 27.9201 -40.8157 -85.3963 0.71268 -23.2548 3.46249 4.39129e-09 -4.13248e-09 -1.38214e-10 7.61747e-09 -7.03469e-09 -1.81269e-10 4.39128e-09 -4.13248e-09 -1.38211e-10 -7.73091 5.47488 -0.417314 4.39129e-09 -4.13247e-09 -1.38217e-10 -2.90554 0.965183 -0.102902 4.39128e-09 -4.13248e-09 -1.38219e-10 -10.2786 0.731801 -0.0259123 4.39128e-09 -4.13248e-09 -1.3823e-10 -2.22167 -0.733487 0.20892 -2.03217e-16 0.0 -3.88251e-19 10.4 -10.0189 5.98255 -0.191221 36.8732 0.88014 -2.54736 -8.96517 -8.37296 2.03217e-16 0.0 3.88251e-19 13.3764 -41.1777 8.10813 1.4138 64.5544 -1.88032 0.496642 -1.38664 -0.146689
